<svg width="86" height="86" viewBox="0 0 86 86" fill="none" xmlns="http://www.w3.org/2000/svg">
<path fill-rule="evenodd" clip-rule="evenodd" d="M78.9281 6.8531C78.9011 6.02537 78.2041 5.37607 77.3713 5.40285C76.0334 5.44586 74.6555 5.52482 73.244 5.64304C72.4137 5.71259 71.7973 6.43796 71.8673 7.26319C71.9373 8.08843 72.6671 8.70103 73.4975 8.63148C74.8572 8.51758 76.1832 8.44165 77.4689 8.40031C78.3017 8.37354 78.955 7.68083 78.9281 6.8531ZM69.8365 7.49669C69.7159 6.67726 68.9497 6.11015 68.1252 6.23002C66.7891 6.42429 65.4314 6.65374 64.0571 6.92087C63.2393 7.07982 62.7061 7.86755 62.866 8.68031C63.0259 9.49308 63.8185 10.0231 64.6363 9.86414C65.9627 9.60632 67.2729 9.3849 68.562 9.19747C69.3865 9.0776 69.9571 8.31613 69.8365 7.49669ZM60.8767 9.12836C60.6683 8.3265 59.8454 7.84434 59.0386 8.05142C57.724 8.38883 56.3996 8.76177 55.0694 9.17228C54.2736 9.41787 53.8288 10.2581 54.0759 11.049C54.323 11.8399 55.1684 12.282 55.9642 12.0364C57.247 11.6405 58.5246 11.2808 59.7931 10.9552C60.5999 10.7481 61.085 9.93021 60.8767 9.12836ZM52.1414 11.7109C51.8457 10.9366 50.9745 10.5472 50.1954 10.841C48.9226 11.3211 47.6486 11.8375 46.3768 12.392C45.6137 12.7246 45.2665 13.6091 45.6012 14.3675C45.9359 15.1259 46.8259 15.4711 47.589 15.1384C48.813 14.6047 50.0398 14.1075 51.2661 13.6449C52.0452 13.3511 52.437 12.4852 52.1414 11.7109ZM43.7531 15.2447C43.3694 14.5096 42.4587 14.2228 41.7191 14.6042C40.5069 15.2292 39.3005 15.8914 38.103 16.5924C37.385 17.0126 37.1457 17.9318 37.5686 18.6454C37.9915 19.359 38.9163 19.5968 39.6343 19.1765C40.7843 18.5034 41.9434 17.8671 43.1087 17.2663C43.8483 16.8849 44.1369 15.9798 43.7531 15.2447ZM35.8426 19.736C35.3713 19.053 34.4322 18.8791 33.745 19.3474C32.6185 20.1153 31.5035 20.9208 30.4029 21.7652C29.7434 22.2713 29.6215 23.213 30.1307 23.8685C30.6399 24.5241 31.5874 24.6452 32.2469 24.1391C33.3019 23.3297 34.371 22.5573 35.4516 21.8207C36.1389 21.3524 36.3139 20.419 35.8426 19.736ZM28.5587 25.1659C28.0037 24.5482 27.0499 24.4946 26.4284 25.0462C25.4099 25.9503 24.4076 26.8917 23.4241 27.8717C22.8357 28.4581 22.8369 29.4075 23.4269 29.9924C24.0169 30.5772 24.9722 30.5759 25.5606 29.9896C26.5027 29.0509 27.4626 28.1491 28.4383 27.2831C29.0599 26.7315 29.1137 25.7836 28.5587 25.1659ZM22.034 31.4847C21.4031 30.9437 20.4503 31.0134 19.906 31.6405C19.0157 32.6661 18.145 33.728 17.2962 34.8273C16.7888 35.4843 16.9134 36.4256 17.5744 36.9298C18.2355 37.434 19.1826 37.3102 19.6899 36.6532C20.5036 35.5996 21.3378 34.5821 22.1907 33.5996C22.7351 32.9725 22.6649 32.0256 22.034 31.4847ZM16.3844 38.5899C15.6893 38.1331 14.7533 38.3228 14.2937 39.0136C13.5443 40.14 12.8167 41.3008 12.1126 42.4966C11.6917 43.2114 11.9335 44.1299 12.6527 44.5482C13.3718 44.9665 14.296 44.7262 14.7169 44.0114C15.3933 42.8627 16.0918 41.7485 16.8108 40.6677C17.2704 39.9769 17.0795 39.0466 16.3844 38.5899ZM11.6774 46.3402C10.932 45.9701 10.0258 46.2706 9.65343 47.0115C9.04841 48.2151 8.46593 49.4505 7.90739 50.7183C7.57316 51.4769 7.92099 52.3611 8.6843 52.6933C9.4476 53.0255 10.3373 52.6798 10.6716 51.9212C11.2098 50.6995 11.7707 49.5099 12.3529 48.3518C12.7252 47.611 12.4229 46.7103 11.6774 46.3402ZM7.92197 54.5802C7.13991 54.2943 6.27277 54.6927 5.98517 55.47C5.5191 56.7296 5.07545 58.0181 4.65532 59.3362C4.40367 60.1257 4.84364 60.9685 5.63801 61.2186C6.43237 61.4687 7.28033 61.0314 7.53197 60.2419C7.93838 58.9669 8.3672 57.7214 8.81728 56.5051C9.10488 55.7278 8.70404 54.866 7.92197 54.5802ZM5.075 63.171C4.26824 62.9638 3.44519 63.4457 3.23665 64.2476C2.89838 65.5481 2.58191 66.8751 2.28812 68.2289C2.11243 69.0384 2.63034 69.8363 3.44489 70.0109C4.25942 70.1855 5.06216 69.6707 5.23784 68.8612C5.52314 67.5465 5.83023 66.259 6.15816 64.9981C6.36671 64.1963 5.88175 63.3783 5.075 63.171ZM3.06136 72.0147C2.2394 71.8787 1.46215 72.4307 1.32533 73.2476C1.10416 74.5681 0.903572 75.9122 0.724312 77.2804C0.616714 78.1017 1.19934 78.8541 2.02563 78.961C2.85193 79.068 3.609 78.4889 3.71659 77.6677C3.89132 76.3341 4.08668 75.0251 4.30191 73.7401C4.43874 72.9232 3.88332 72.1507 3.06136 72.0147ZM1.80621 80.9692C0.976181 80.8963 0.243851 81.5059 0.170502 82.3309C0.109909 83.0124 0.0543747 83.6995 0.00399017 84.3923C-0.0560913 85.2183 0.568939 85.9363 1.40005 85.996C2.23115 86.0557 2.95359 85.4345 3.01367 84.6085C3.06292 83.9316 3.11716 83.2604 3.17633 82.5949C3.24967 81.7699 2.63625 81.0421 1.80621 80.9692Z" fill="white"/>
<path d="M85.6318 6.04384C86.1773 6.66992 86.1088 7.61692 85.4788 8.15902L80.0815 13.797C79.4515 14.3391 78.4987 14.271 77.9532 13.6449C77.4078 13.0188 77.4763 12.0718 78.1062 11.5297L81.3604 7.71925C81.7059 7.31479 81.6742 6.71071 81.2885 6.34454L77.2183 2.48115C76.6729 1.85507 76.7414 0.908068 77.3713 0.365971C78.0013 -0.176125 78.9541 -0.10804 79.4995 0.518043L85.6318 6.04384Z" fill="white"/>
</svg>
