<svg width="13" height="14" viewBox="0 0 13 14" fill="none" xmlns="http://www.w3.org/2000/svg">
<g clip-path="url(#clip0_69_44)">
<path d="M6.49999 3.91553L1.8636 7.73774C1.8636 7.74314 1.86225 7.75108 1.85954 7.76189C1.85688 7.77262 1.85547 7.78042 1.85547 7.78595V11.6564C1.85547 11.7961 1.90656 11.9172 2.00871 12.0192C2.11084 12.1212 2.23177 12.1726 2.37155 12.1726H5.46778V9.07616H7.53223V12.1727H10.6284C10.7682 12.1727 10.8893 12.1215 10.9913 12.0192C11.0934 11.9173 11.1447 11.7961 11.1447 11.6564V7.78595C11.1447 7.76449 11.1417 7.74828 11.1365 7.73774L6.49999 3.91553Z" fill="#666666"/>
<path d="M12.9103 6.86688L11.1445 5.39933V2.10943C11.1445 2.03422 11.1204 1.97237 11.0718 1.92396C11.0237 1.87561 10.9619 1.85144 10.8865 1.85144H9.33834C9.26304 1.85144 9.20122 1.87561 9.15278 1.92396C9.10446 1.97237 9.08031 2.03425 9.08031 2.10943V3.68179L7.11288 2.03679C6.94105 1.89702 6.73675 1.82715 6.50019 1.82715C6.26365 1.82715 6.05938 1.89702 5.88738 2.03679L0.0896012 6.86688C0.0358556 6.90981 0.00639857 6.96759 0.000919507 7.04017C-0.00453131 7.1127 0.01425 7.17605 0.0573199 7.22977L0.557242 7.82648C0.600312 7.87483 0.656684 7.9044 0.726584 7.91522C0.791118 7.92064 0.855653 7.90177 0.920187 7.85879L6.50002 3.20604L12.0799 7.85876C12.123 7.89627 12.1793 7.91499 12.2492 7.91499H12.2735C12.3433 7.90437 12.3995 7.8746 12.4428 7.82636L12.9428 7.22974C12.9858 7.17591 13.0046 7.11267 12.999 7.04006C12.9935 6.96768 12.964 6.90989 12.9103 6.86688Z" fill="#666666"/>
</g>
<defs>
<clipPath id="clip0_69_44">
<rect width="13" height="13" fill="white" transform="translate(0 0.5)"/>
</clipPath>
</defs>
</svg>
